<svg viewBox="0 0 64 64" xmlns="http://www.w3.org/2000/svg"><g data-name="Outline"><path d="M30.787 62c14.4.117 26.222-11.2 26.213-25.122C57 23.146 31.425 3.06 30.336 2.211a1 1 0 0 0-1.178-.037c-6.658 4.539-9.772 8.754-9.521 12.887a13.853 13.853 0 0 0 .278 1.853 5.017 5.017 0 0 1-.162 3.614c-.517.968-2.062 2.734-4.182 2.479a4.312 4.312 0 0 1-2.971-2.046 1.014 1.014 0 0 0-1.6-.139 24.276 24.276 0 0 0-3.682 26.186A25.509 25.509 0 0 0 30.787 62ZM11.72 23.082a5.9 5.9 0 0 0 3.615 1.911 6.5 6.5 0 0 0 6.182-3.521 6.836 6.836 0 0 0 .36-4.945 12.4 12.4 0 0 1-.244-1.588c-.194-3.207 2.512-6.8 8.046-10.693C33.493 7.321 55 25.19 55 36.878 55 49.627 44.233 60 30.991 60A23.474 23.474 0 0 1 9.136 46.174a22.1 22.1 0 0 1 2.584-23.092Z" fill="#8e9097" class="fill-000000"></path><path d="M26 38a4 4 0 1 0-4-4 4 4 0 0 0 4 4Zm0-6a2 2 0 1 1-2 2 2 2 0 0 1 2-2ZM38 42a4 4 0 1 0 4 4 4 4 0 0 0-4-4Zm0 6a2 2 0 1 1 2-2 2 2 0 0 1-2 2ZM22.882 46a3.11 3.11 0 0 0 5.318 2.194l11.921-12.072a3.026 3.026 0 0 0 0-4.243 3.086 3.086 0 0 0-4.238 0L23.806 43.8a3.094 3.094 0 0 0-.924 2.2Zm2.329-.78 12.083-11.928a1 1 0 1 1 1.406 1.419L26.78 46.788a1.109 1.109 0 1 1-1.569-1.568Z" fill="#8e9097" class="fill-000000"></path></g></svg>