<svg viewBox="0 0 32 32" xml:space="preserve" xmlns="http://www.w3.org/2000/svg" fill-rule="evenodd" clip-rule="evenodd" stroke-linejoin="round" stroke-miterlimit="2"><path d="M9 11H7.766a3 3 0 0 0-2.977 2.628l-1.5 12a2.996 2.996 0 0 0 .728 2.357A2.996 2.996 0 0 0 6.266 29h19.462a2.999 2.999 0 0 0 2.976-3.372l-1.5-12A2.999 2.999 0 0 0 24.228 11h-1.235V7.996A6.996 6.996 0 0 0 15.997 1h-.001A6.996 6.996 0 0 0 9 7.996V11Zm8 2v2h.997a1.001 1.001 0 0 1 0 2h-3a1 1 0 0 0 0 2h2c1.655 0 3 1.344 3 3A3.002 3.002 0 0 1 17 25v2h8.728a1 1 0 0 0 .992-1.124l-1.5-12a1 1 0 0 0-.992-.876H17Zm-2 0H7.766a1 1 0 0 0-.993.876l-1.5 12A1.002 1.002 0 0 0 6.266 27H15v-2h-1.003a1 1 0 0 1 0-2h3a1.001 1.001 0 0 0 0-2h-2a3.001 3.001 0 0 1 0-6H15v-2Zm5.993-2V7.996A4.996 4.996 0 0 0 15.997 3h-.001A4.996 4.996 0 0 0 11 7.996V11h9.993Z" fill="#8e9097" class="fill-000000"></path></svg>