<svg viewBox="0 0 24 24" xmlns="http://www.w3.org/2000/svg"><path d="M2 9.654a1 1 0 0 0-1 1v12.167a1 1 0 0 0 2 0V10.654a1 1 0 0 0-1-1ZM22 9.321a1 1 0 0 0-1 1v12.5a1 1 0 0 0 2 0v-12.5a1 1 0 0 0-1-1Z" fill="#8e9097" class="fill-000000"></path><rect height="6" rx=".5" ry=".5" width="7" x="8.5" y="10.821" fill="#8e9097" class="fill-000000"></rect><rect height="6" rx=".5" ry=".5" width="7" x="12.5" y="17.821" fill="#8e9097" class="fill-000000"></rect><rect height="6" rx=".5" ry=".5" width="7" x="4.5" y="17.821" fill="#8e9097" class="fill-000000"></rect><path d="M23.627 3.77 12.71-.124a.514.514 0 0 0-.331-.005L.386 3.777A.581.581 0 0 0 0 4.335v3.4a.565.565 0 0 0 .545.583h22.909a.565.565 0 0 0 .546-.58V4.324a.581.581 0 0 0-.373-.554Z" fill="#8e9097" class="fill-000000"></path></svg>